<mxfile host="app.diagrams.net" modified="2021-03-03T02:54:53.706Z" agent="5.0 (Windows NT 10.0; Win64; x64) AppleWebKit/537.36 (KHTML, like Gecko) Chrome/88.0.4324.182 Safari/537.36 Edg/88.0.705.81" etag="LsVfexofIRFfw8AXotrH" version="14.4.3" type="github">
  <diagram id="udH00ynw8GB3pCjKfQQe" name="Page-1">
    <mxGraphModel dx="2310" dy="794" grid="1" gridSize="10" guides="1" tooltips="1" connect="1" arrows="1" fold="1" page="1" pageScale="1" pageWidth="827" pageHeight="1169" math="0" shadow="0">
      <root>
        <mxCell id="0" />
        <mxCell id="1" parent="0" />
        <mxCell id="oWUO9L_G3Eso75ve9gdb-1" value="TEAM" style="whiteSpace=wrap;html=1;align=center;fontStyle=1;strokeWidth=2;" parent="1" vertex="1">
          <mxGeometry x="440" y="490" width="90" height="30" as="geometry" />
        </mxCell>
        <mxCell id="oWUO9L_G3Eso75ve9gdb-2" value="COACH TEAM" style="whiteSpace=wrap;html=1;align=center;fontStyle=1;strokeWidth=2;" parent="1" vertex="1">
          <mxGeometry x="660" y="330" width="90" height="30" as="geometry" />
        </mxCell>
        <mxCell id="oWUO9L_G3Eso75ve9gdb-3" value="INDEX" style="whiteSpace=wrap;html=1;align=center;fontStyle=1;strokeWidth=2;" parent="1" vertex="1">
          <mxGeometry x="120" y="490" width="90" height="30" as="geometry" />
        </mxCell>
        <mxCell id="oWUO9L_G3Eso75ve9gdb-4" value="PLAYERS" style="whiteSpace=wrap;html=1;align=center;fontStyle=1;strokeWidth=2;" parent="1" vertex="1">
          <mxGeometry x="120" y="130" width="90" height="30" as="geometry" />
        </mxCell>
        <mxCell id="oWUO9L_G3Eso75ve9gdb-5" value="Club" style="ellipse;whiteSpace=wrap;html=1;align=center;strokeWidth=2;fontStyle=1" parent="1" vertex="1">
          <mxGeometry x="160" y="28" width="80" height="30" as="geometry" />
        </mxCell>
        <mxCell id="oWUO9L_G3Eso75ve9gdb-6" value="Shirt Number" style="ellipse;whiteSpace=wrap;html=1;align=center;strokeWidth=2;fontStyle=1" parent="1" vertex="1">
          <mxGeometry x="20" y="140" width="80" height="30" as="geometry" />
        </mxCell>
        <mxCell id="oWUO9L_G3Eso75ve9gdb-7" value="Address" style="ellipse;whiteSpace=wrap;html=1;align=center;strokeWidth=2;fontStyle=1" parent="1" vertex="1">
          <mxGeometry x="300" y="120" width="80" height="30" as="geometry" />
        </mxCell>
        <mxCell id="oWUO9L_G3Eso75ve9gdb-9" value="DOB" style="ellipse;whiteSpace=wrap;html=1;align=center;strokeWidth=2;fontStyle=1" parent="1" vertex="1">
          <mxGeometry x="250" y="60" width="80" height="30" as="geometry" />
        </mxCell>
        <mxCell id="oWUO9L_G3Eso75ve9gdb-10" value="PName" style="ellipse;whiteSpace=wrap;html=1;align=center;strokeWidth=2;fontStyle=5" parent="1" vertex="1">
          <mxGeometry x="60" y="48" width="80" height="30" as="geometry" />
        </mxCell>
        <mxCell id="oWUO9L_G3Eso75ve9gdb-11" value="PID" style="ellipse;whiteSpace=wrap;html=1;align=center;strokeWidth=2;fontStyle=5" parent="1" vertex="1">
          <mxGeometry x="-10" y="90" width="80" height="30" as="geometry" />
        </mxCell>
        <mxCell id="oWUO9L_G3Eso75ve9gdb-15" value="Performance" style="ellipse;whiteSpace=wrap;html=1;align=center;strokeWidth=2;fontStyle=1" parent="1" vertex="1">
          <mxGeometry x="-20" y="510" width="80" height="30" as="geometry" />
        </mxCell>
        <mxCell id="oWUO9L_G3Eso75ve9gdb-16" value="Penalty cards" style="ellipse;whiteSpace=wrap;html=1;align=center;strokeWidth=2;fontStyle=1" parent="1" vertex="1">
          <mxGeometry x="80" y="570" width="80" height="30" as="geometry" />
        </mxCell>
        <mxCell id="oWUO9L_G3Eso75ve9gdb-17" value="Goals" style="ellipse;whiteSpace=wrap;html=1;align=center;strokeWidth=2;fontStyle=1" parent="1" vertex="1">
          <mxGeometry x="-120" y="555" width="80" height="30" as="geometry" />
        </mxCell>
        <mxCell id="oWUO9L_G3Eso75ve9gdb-18" value="NoMatchs" style="ellipse;whiteSpace=wrap;html=1;align=center;strokeWidth=2;fontStyle=1" parent="1" vertex="1">
          <mxGeometry x="-20" y="585" width="80" height="30" as="geometry" />
        </mxCell>
        <mxCell id="oWUO9L_G3Eso75ve9gdb-19" value="Traning" style="ellipse;whiteSpace=wrap;html=1;align=center;strokeWidth=2;fontStyle=1" parent="1" vertex="1">
          <mxGeometry x="10" y="440" width="80" height="30" as="geometry" />
        </mxCell>
        <mxCell id="oWUO9L_G3Eso75ve9gdb-20" value="Weight" style="ellipse;whiteSpace=wrap;html=1;align=center;strokeWidth=2;fontStyle=1" parent="1" vertex="1">
          <mxGeometry x="-20" y="370" width="80" height="30" as="geometry" />
        </mxCell>
        <mxCell id="oWUO9L_G3Eso75ve9gdb-21" value="Height" style="ellipse;whiteSpace=wrap;html=1;align=center;strokeWidth=2;fontStyle=1" parent="1" vertex="1">
          <mxGeometry x="-110" y="450" width="80" height="30" as="geometry" />
        </mxCell>
        <mxCell id="oWUO9L_G3Eso75ve9gdb-23" value="Position" style="ellipse;whiteSpace=wrap;html=1;align=center;strokeWidth=2;fontStyle=1" parent="1" vertex="1">
          <mxGeometry x="240" y="180" width="80" height="30" as="geometry" />
        </mxCell>
        <mxCell id="oWUO9L_G3Eso75ve9gdb-24" value="Bid amount" style="ellipse;whiteSpace=wrap;html=1;align=center;strokeWidth=2;fontStyle=1" parent="1" vertex="1">
          <mxGeometry x="200" y="420" width="80" height="30" as="geometry" />
        </mxCell>
        <mxCell id="oWUO9L_G3Eso75ve9gdb-27" value="Condition" style="ellipse;whiteSpace=wrap;html=1;align=center;strokeWidth=2;fontStyle=1" parent="1" vertex="1">
          <mxGeometry x="-100" y="400" width="80" height="30" as="geometry" />
        </mxCell>
        <mxCell id="oWUO9L_G3Eso75ve9gdb-29" value="PID" style="ellipse;whiteSpace=wrap;html=1;align=center;strokeWidth=2;fontStyle=5" parent="1" vertex="1">
          <mxGeometry x="350" y="550" width="80" height="30" as="geometry" />
        </mxCell>
        <mxCell id="oWUO9L_G3Eso75ve9gdb-30" value="PName" style="ellipse;whiteSpace=wrap;html=1;align=center;strokeWidth=2;fontStyle=5" parent="1" vertex="1">
          <mxGeometry x="450" y="580" width="80" height="30" as="geometry" />
        </mxCell>
        <mxCell id="oWUO9L_G3Eso75ve9gdb-35" value="CName" style="ellipse;whiteSpace=wrap;html=1;align=center;strokeWidth=2;fontStyle=5" parent="1" vertex="1">
          <mxGeometry x="780" y="410" width="80" height="30" as="geometry" />
        </mxCell>
        <mxCell id="oWUO9L_G3Eso75ve9gdb-36" value="Position" style="ellipse;whiteSpace=wrap;html=1;align=center;strokeWidth=2;fontStyle=1" parent="1" vertex="1">
          <mxGeometry x="810" y="300" width="80" height="30" as="geometry" />
        </mxCell>
        <mxCell id="oWUO9L_G3Eso75ve9gdb-37" value="DOB" style="ellipse;whiteSpace=wrap;html=1;align=center;strokeWidth=2;fontStyle=1" parent="1" vertex="1">
          <mxGeometry x="810" y="360" width="80" height="30" as="geometry" />
        </mxCell>
        <mxCell id="oWUO9L_G3Eso75ve9gdb-38" value="Nationality" style="ellipse;whiteSpace=wrap;html=1;align=center;strokeWidth=2;fontStyle=1" parent="1" vertex="1">
          <mxGeometry x="639.89" y="260" width="80" height="30" as="geometry" />
        </mxCell>
        <mxCell id="oWUO9L_G3Eso75ve9gdb-39" value="" style="endArrow=none;html=1;rounded=0;exitX=1;exitY=0;exitDx=0;exitDy=0;entryX=0.5;entryY=1;entryDx=0;entryDy=0;" parent="1" source="oWUO9L_G3Eso75ve9gdb-4" target="oWUO9L_G3Eso75ve9gdb-9" edge="1">
          <mxGeometry relative="1" as="geometry">
            <mxPoint x="330" y="250" as="sourcePoint" />
            <mxPoint x="490" y="250" as="targetPoint" />
          </mxGeometry>
        </mxCell>
        <mxCell id="oWUO9L_G3Eso75ve9gdb-40" value="" style="endArrow=none;html=1;rounded=0;exitX=0.75;exitY=0;exitDx=0;exitDy=0;" parent="1" source="oWUO9L_G3Eso75ve9gdb-4" edge="1">
          <mxGeometry relative="1" as="geometry">
            <mxPoint x="220" y="140" as="sourcePoint" />
            <mxPoint x="200" y="60" as="targetPoint" />
          </mxGeometry>
        </mxCell>
        <mxCell id="oWUO9L_G3Eso75ve9gdb-41" value="" style="endArrow=none;html=1;rounded=0;exitX=0.5;exitY=0;exitDx=0;exitDy=0;entryX=0.5;entryY=1;entryDx=0;entryDy=0;" parent="1" source="oWUO9L_G3Eso75ve9gdb-4" target="oWUO9L_G3Eso75ve9gdb-10" edge="1">
          <mxGeometry relative="1" as="geometry">
            <mxPoint x="197.5" y="140" as="sourcePoint" />
            <mxPoint x="210" y="70" as="targetPoint" />
          </mxGeometry>
        </mxCell>
        <mxCell id="oWUO9L_G3Eso75ve9gdb-42" value="" style="endArrow=none;html=1;rounded=0;entryX=1;entryY=0.5;entryDx=0;entryDy=0;" parent="1" target="oWUO9L_G3Eso75ve9gdb-11" edge="1">
          <mxGeometry relative="1" as="geometry">
            <mxPoint x="140" y="130" as="sourcePoint" />
            <mxPoint x="110" y="88" as="targetPoint" />
          </mxGeometry>
        </mxCell>
        <mxCell id="oWUO9L_G3Eso75ve9gdb-43" value="" style="endArrow=none;html=1;rounded=0;entryX=1;entryY=0.5;entryDx=0;entryDy=0;exitX=0;exitY=0.5;exitDx=0;exitDy=0;" parent="1" source="oWUO9L_G3Eso75ve9gdb-4" target="oWUO9L_G3Eso75ve9gdb-6" edge="1">
          <mxGeometry relative="1" as="geometry">
            <mxPoint x="150" y="140" as="sourcePoint" />
            <mxPoint x="80" y="115" as="targetPoint" />
          </mxGeometry>
        </mxCell>
        <mxCell id="oWUO9L_G3Eso75ve9gdb-44" value="" style="endArrow=none;html=1;rounded=0;entryX=0;entryY=0.5;entryDx=0;entryDy=0;exitX=1;exitY=0.5;exitDx=0;exitDy=0;" parent="1" source="oWUO9L_G3Eso75ve9gdb-4" target="oWUO9L_G3Eso75ve9gdb-7" edge="1">
          <mxGeometry relative="1" as="geometry">
            <mxPoint x="120" y="160" as="sourcePoint" />
            <mxPoint x="90" y="185" as="targetPoint" />
          </mxGeometry>
        </mxCell>
        <mxCell id="oWUO9L_G3Eso75ve9gdb-45" value="" style="endArrow=none;html=1;rounded=0;entryX=0.5;entryY=0;entryDx=0;entryDy=0;exitX=1;exitY=1;exitDx=0;exitDy=0;" parent="1" source="oWUO9L_G3Eso75ve9gdb-4" target="oWUO9L_G3Eso75ve9gdb-23" edge="1">
          <mxGeometry relative="1" as="geometry">
            <mxPoint x="152.5" y="170" as="sourcePoint" />
            <mxPoint x="150" y="210" as="targetPoint" />
          </mxGeometry>
        </mxCell>
        <mxCell id="oWUO9L_G3Eso75ve9gdb-50" value="" style="endArrow=none;html=1;rounded=0;exitX=0.5;exitY=1;exitDx=0;exitDy=0;entryX=0.5;entryY=0;entryDx=0;entryDy=0;" parent="1" source="oWUO9L_G3Eso75ve9gdb-20" target="oWUO9L_G3Eso75ve9gdb-19" edge="1">
          <mxGeometry relative="1" as="geometry">
            <mxPoint x="330" y="430" as="sourcePoint" />
            <mxPoint x="490" y="430" as="targetPoint" />
          </mxGeometry>
        </mxCell>
        <mxCell id="oWUO9L_G3Eso75ve9gdb-51" value="" style="endArrow=none;html=1;rounded=0;exitX=1;exitY=0.5;exitDx=0;exitDy=0;entryX=0;entryY=0;entryDx=0;entryDy=0;" parent="1" source="oWUO9L_G3Eso75ve9gdb-27" target="oWUO9L_G3Eso75ve9gdb-19" edge="1">
          <mxGeometry relative="1" as="geometry">
            <mxPoint x="30" y="410" as="sourcePoint" />
            <mxPoint x="60" y="450" as="targetPoint" />
          </mxGeometry>
        </mxCell>
        <mxCell id="oWUO9L_G3Eso75ve9gdb-52" value="" style="endArrow=none;html=1;rounded=0;exitX=1;exitY=0.5;exitDx=0;exitDy=0;" parent="1" source="oWUO9L_G3Eso75ve9gdb-21" edge="1">
          <mxGeometry relative="1" as="geometry">
            <mxPoint x="-10" y="425" as="sourcePoint" />
            <mxPoint x="10" y="454" as="targetPoint" />
          </mxGeometry>
        </mxCell>
        <mxCell id="oWUO9L_G3Eso75ve9gdb-53" value="" style="endArrow=none;html=1;rounded=0;exitX=0.5;exitY=0;exitDx=0;exitDy=0;entryX=0;entryY=0.5;entryDx=0;entryDy=0;" parent="1" source="oWUO9L_G3Eso75ve9gdb-15" target="oWUO9L_G3Eso75ve9gdb-3" edge="1">
          <mxGeometry relative="1" as="geometry">
            <mxPoint x="-20" y="475" as="sourcePoint" />
            <mxPoint x="20" y="464" as="targetPoint" />
          </mxGeometry>
        </mxCell>
        <mxCell id="oWUO9L_G3Eso75ve9gdb-54" value="" style="endArrow=none;html=1;rounded=0;exitX=0.5;exitY=1;exitDx=0;exitDy=0;entryX=0.5;entryY=0;entryDx=0;entryDy=0;" parent="1" source="oWUO9L_G3Eso75ve9gdb-24" target="oWUO9L_G3Eso75ve9gdb-3" edge="1">
          <mxGeometry relative="1" as="geometry">
            <mxPoint x="30" y="520" as="sourcePoint" />
            <mxPoint x="130" y="515" as="targetPoint" />
          </mxGeometry>
        </mxCell>
        <mxCell id="oWUO9L_G3Eso75ve9gdb-55" value="" style="endArrow=none;html=1;rounded=0;exitX=0.5;exitY=1;exitDx=0;exitDy=0;entryX=0.5;entryY=0;entryDx=0;entryDy=0;" parent="1" source="oWUO9L_G3Eso75ve9gdb-3" target="oWUO9L_G3Eso75ve9gdb-16" edge="1">
          <mxGeometry relative="1" as="geometry">
            <mxPoint x="160" y="460" as="sourcePoint" />
            <mxPoint x="175" y="500" as="targetPoint" />
          </mxGeometry>
        </mxCell>
        <mxCell id="oWUO9L_G3Eso75ve9gdb-56" value="" style="endArrow=none;html=1;rounded=0;exitX=0.5;exitY=1;exitDx=0;exitDy=0;entryX=0.5;entryY=0;entryDx=0;entryDy=0;" parent="1" source="oWUO9L_G3Eso75ve9gdb-15" target="oWUO9L_G3Eso75ve9gdb-18" edge="1">
          <mxGeometry relative="1" as="geometry">
            <mxPoint x="175" y="530" as="sourcePoint" />
            <mxPoint x="130" y="580" as="targetPoint" />
          </mxGeometry>
        </mxCell>
        <mxCell id="oWUO9L_G3Eso75ve9gdb-57" value="" style="endArrow=none;html=1;rounded=0;exitX=0.5;exitY=1;exitDx=0;exitDy=0;entryX=1;entryY=0.5;entryDx=0;entryDy=0;" parent="1" source="oWUO9L_G3Eso75ve9gdb-15" target="oWUO9L_G3Eso75ve9gdb-17" edge="1">
          <mxGeometry relative="1" as="geometry">
            <mxPoint x="30" y="550" as="sourcePoint" />
            <mxPoint x="30" y="595" as="targetPoint" />
          </mxGeometry>
        </mxCell>
        <mxCell id="oWUO9L_G3Eso75ve9gdb-58" value="" style="endArrow=none;html=1;rounded=0;exitX=1;exitY=0.5;exitDx=0;exitDy=0;entryX=0;entryY=0;entryDx=0;entryDy=0;" parent="1" source="oWUO9L_G3Eso75ve9gdb-19" target="oWUO9L_G3Eso75ve9gdb-3" edge="1">
          <mxGeometry relative="1" as="geometry">
            <mxPoint x="30" y="520" as="sourcePoint" />
            <mxPoint x="130" y="515" as="targetPoint" />
          </mxGeometry>
        </mxCell>
        <mxCell id="oWUO9L_G3Eso75ve9gdb-59" value="" style="endArrow=none;html=1;rounded=0;entryX=0;entryY=0;entryDx=0;entryDy=0;" parent="1" target="oWUO9L_G3Eso75ve9gdb-35" edge="1">
          <mxGeometry relative="1" as="geometry">
            <mxPoint x="720" y="360" as="sourcePoint" />
            <mxPoint x="490" y="250" as="targetPoint" />
          </mxGeometry>
        </mxCell>
        <mxCell id="oWUO9L_G3Eso75ve9gdb-60" value="" style="endArrow=none;html=1;rounded=0;entryX=0.363;entryY=1.047;entryDx=0;entryDy=0;exitX=0.5;exitY=0;exitDx=0;exitDy=0;entryPerimeter=0;" parent="1" source="oWUO9L_G3Eso75ve9gdb-2" target="oWUO9L_G3Eso75ve9gdb-38" edge="1">
          <mxGeometry relative="1" as="geometry">
            <mxPoint x="692.5" y="340" as="sourcePoint" />
            <mxPoint x="670" y="310" as="targetPoint" />
          </mxGeometry>
        </mxCell>
        <mxCell id="oWUO9L_G3Eso75ve9gdb-61" value="" style="endArrow=none;html=1;rounded=0;entryX=0;entryY=0.5;entryDx=0;entryDy=0;" parent="1" target="oWUO9L_G3Eso75ve9gdb-36" edge="1">
          <mxGeometry relative="1" as="geometry">
            <mxPoint x="750" y="330" as="sourcePoint" />
            <mxPoint x="769.04" y="291.40999999999997" as="targetPoint" />
          </mxGeometry>
        </mxCell>
        <mxCell id="oWUO9L_G3Eso75ve9gdb-62" value="" style="endArrow=none;html=1;rounded=0;entryX=0;entryY=0.5;entryDx=0;entryDy=0;exitX=1;exitY=0.5;exitDx=0;exitDy=0;" parent="1" source="oWUO9L_G3Eso75ve9gdb-2" target="oWUO9L_G3Eso75ve9gdb-37" edge="1">
          <mxGeometry relative="1" as="geometry">
            <mxPoint x="760" y="340" as="sourcePoint" />
            <mxPoint x="820" y="325" as="targetPoint" />
          </mxGeometry>
        </mxCell>
        <mxCell id="oWUO9L_G3Eso75ve9gdb-63" value="" style="endArrow=none;html=1;rounded=0;exitX=0.5;exitY=0;exitDx=0;exitDy=0;entryX=0.25;entryY=1;entryDx=0;entryDy=0;" parent="1" source="oWUO9L_G3Eso75ve9gdb-29" target="oWUO9L_G3Eso75ve9gdb-1" edge="1">
          <mxGeometry relative="1" as="geometry">
            <mxPoint x="330" y="600" as="sourcePoint" />
            <mxPoint x="490" y="600" as="targetPoint" />
          </mxGeometry>
        </mxCell>
        <mxCell id="oWUO9L_G3Eso75ve9gdb-64" value="" style="endArrow=none;html=1;rounded=0;exitX=0.5;exitY=0;exitDx=0;exitDy=0;entryX=0.25;entryY=1;entryDx=0;entryDy=0;" parent="1" source="oWUO9L_G3Eso75ve9gdb-30" target="oWUO9L_G3Eso75ve9gdb-1" edge="1">
          <mxGeometry relative="1" as="geometry">
            <mxPoint x="400" y="560" as="sourcePoint" />
            <mxPoint x="472.5" y="530" as="targetPoint" />
          </mxGeometry>
        </mxCell>
        <mxCell id="oWUO9L_G3Eso75ve9gdb-65" value="Achievement" style="ellipse;whiteSpace=wrap;html=1;align=center;strokeWidth=2;fontStyle=1" parent="1" vertex="1">
          <mxGeometry x="610" y="460" width="80" height="30" as="geometry" />
        </mxCell>
        <mxCell id="oWUO9L_G3Eso75ve9gdb-67" value="Performance" style="ellipse;whiteSpace=wrap;html=1;align=center;strokeWidth=2;fontStyle=1" parent="1" vertex="1">
          <mxGeometry x="590" y="520" width="80" height="30" as="geometry" />
        </mxCell>
        <mxCell id="oWUO9L_G3Eso75ve9gdb-68" value="Draw" style="ellipse;whiteSpace=wrap;html=1;align=center;strokeWidth=2;fontStyle=1" parent="1" vertex="1">
          <mxGeometry x="711" y="530" width="80" height="30" as="geometry" />
        </mxCell>
        <mxCell id="oWUO9L_G3Eso75ve9gdb-69" value="Win" style="ellipse;whiteSpace=wrap;html=1;align=center;strokeWidth=2;fontStyle=1" parent="1" vertex="1">
          <mxGeometry x="711" y="480" width="80" height="30" as="geometry" />
        </mxCell>
        <mxCell id="oWUO9L_G3Eso75ve9gdb-70" value="Loss" style="ellipse;whiteSpace=wrap;html=1;align=center;strokeWidth=2;fontStyle=1" parent="1" vertex="1">
          <mxGeometry x="711" y="585" width="80" height="30" as="geometry" />
        </mxCell>
        <mxCell id="oWUO9L_G3Eso75ve9gdb-71" value="" style="endArrow=none;html=1;rounded=0;entryX=0;entryY=0.5;entryDx=0;entryDy=0;exitX=1;exitY=0.5;exitDx=0;exitDy=0;" parent="1" source="oWUO9L_G3Eso75ve9gdb-1" target="oWUO9L_G3Eso75ve9gdb-65" edge="1">
          <mxGeometry relative="1" as="geometry">
            <mxPoint x="330" y="430" as="sourcePoint" />
            <mxPoint x="490" y="430" as="targetPoint" />
          </mxGeometry>
        </mxCell>
        <mxCell id="oWUO9L_G3Eso75ve9gdb-72" value="" style="endArrow=none;html=1;rounded=0;entryX=0;entryY=0.5;entryDx=0;entryDy=0;exitX=1;exitY=0.5;exitDx=0;exitDy=0;" parent="1" source="oWUO9L_G3Eso75ve9gdb-1" target="oWUO9L_G3Eso75ve9gdb-67" edge="1">
          <mxGeometry relative="1" as="geometry">
            <mxPoint x="540" y="515" as="sourcePoint" />
            <mxPoint x="620" y="485" as="targetPoint" />
          </mxGeometry>
        </mxCell>
        <mxCell id="oWUO9L_G3Eso75ve9gdb-73" value="" style="endArrow=none;html=1;rounded=0;entryX=0;entryY=0.5;entryDx=0;entryDy=0;exitX=1;exitY=0.5;exitDx=0;exitDy=0;" parent="1" source="oWUO9L_G3Eso75ve9gdb-67" target="oWUO9L_G3Eso75ve9gdb-69" edge="1">
          <mxGeometry relative="1" as="geometry">
            <mxPoint x="540" y="515" as="sourcePoint" />
            <mxPoint x="600" y="545" as="targetPoint" />
          </mxGeometry>
        </mxCell>
        <mxCell id="oWUO9L_G3Eso75ve9gdb-74" value="" style="endArrow=none;html=1;rounded=0;entryX=0;entryY=0.5;entryDx=0;entryDy=0;exitX=1;exitY=0.5;exitDx=0;exitDy=0;" parent="1" source="oWUO9L_G3Eso75ve9gdb-67" target="oWUO9L_G3Eso75ve9gdb-68" edge="1">
          <mxGeometry relative="1" as="geometry">
            <mxPoint x="680" y="545" as="sourcePoint" />
            <mxPoint x="721" y="505" as="targetPoint" />
          </mxGeometry>
        </mxCell>
        <mxCell id="oWUO9L_G3Eso75ve9gdb-75" value="" style="endArrow=none;html=1;rounded=0;entryX=0;entryY=0.5;entryDx=0;entryDy=0;exitX=1;exitY=0.5;exitDx=0;exitDy=0;" parent="1" source="oWUO9L_G3Eso75ve9gdb-67" target="oWUO9L_G3Eso75ve9gdb-70" edge="1">
          <mxGeometry relative="1" as="geometry">
            <mxPoint x="680" y="545" as="sourcePoint" />
            <mxPoint x="721" y="555" as="targetPoint" />
          </mxGeometry>
        </mxCell>
        <mxCell id="oWUO9L_G3Eso75ve9gdb-76" value="has" style="shape=rhombus;perimeter=rhombusPerimeter;whiteSpace=wrap;html=1;align=center;strokeWidth=2;" parent="1" vertex="1">
          <mxGeometry x="80" y="290" width="100" height="40" as="geometry" />
        </mxCell>
        <mxCell id="oWUO9L_G3Eso75ve9gdb-78" value="gathers" style="shape=rhombus;perimeter=rhombusPerimeter;whiteSpace=wrap;html=1;align=center;strokeWidth=2;" parent="1" vertex="1">
          <mxGeometry x="200" y="315" width="100" height="40" as="geometry" />
        </mxCell>
        <mxCell id="oWUO9L_G3Eso75ve9gdb-79" value="manage" style="shape=rhombus;perimeter=rhombusPerimeter;whiteSpace=wrap;html=1;align=center;strokeWidth=2;" parent="1" vertex="1">
          <mxGeometry x="530" y="390" width="100" height="40" as="geometry" />
        </mxCell>
        <mxCell id="oWUO9L_G3Eso75ve9gdb-80" value="takes part in" style="shape=rhombus;perimeter=rhombusPerimeter;whiteSpace=wrap;html=1;align=center;strokeWidth=2;" parent="1" vertex="1">
          <mxGeometry x="500" y="250" width="100" height="40" as="geometry" />
        </mxCell>
        <mxCell id="oWUO9L_G3Eso75ve9gdb-83" value="" style="shape=link;html=1;rounded=0;exitX=0.342;exitY=0.165;exitDx=0;exitDy=0;entryX=0.5;entryY=1;entryDx=0;entryDy=0;exitPerimeter=0;" parent="1" source="oWUO9L_G3Eso75ve9gdb-78" target="oWUO9L_G3Eso75ve9gdb-4" edge="1">
          <mxGeometry relative="1" as="geometry">
            <mxPoint x="325" y="330" as="sourcePoint" />
            <mxPoint x="450" y="515" as="targetPoint" />
          </mxGeometry>
        </mxCell>
        <mxCell id="oWUO9L_G3Eso75ve9gdb-84" value="N" style="resizable=0;html=1;align=right;verticalAlign=bottom;" parent="oWUO9L_G3Eso75ve9gdb-83" connectable="0" vertex="1">
          <mxGeometry x="1" relative="1" as="geometry">
            <mxPoint x="25.07" y="20.089999999999996" as="offset" />
          </mxGeometry>
        </mxCell>
        <mxCell id="oWUO9L_G3Eso75ve9gdb-85" value="" style="shape=link;html=1;rounded=0;entryX=0;entryY=0.5;entryDx=0;entryDy=0;" parent="1" source="oWUO9L_G3Eso75ve9gdb-79" target="oWUO9L_G3Eso75ve9gdb-2" edge="1">
          <mxGeometry relative="1" as="geometry">
            <mxPoint x="330" y="340" as="sourcePoint" />
            <mxPoint x="490" y="340" as="targetPoint" />
          </mxGeometry>
        </mxCell>
        <mxCell id="oWUO9L_G3Eso75ve9gdb-86" value="1" style="resizable=0;html=1;align=right;verticalAlign=bottom;" parent="oWUO9L_G3Eso75ve9gdb-85" connectable="0" vertex="1">
          <mxGeometry x="1" relative="1" as="geometry">
            <mxPoint x="-10.14" y="0.11" as="offset" />
          </mxGeometry>
        </mxCell>
        <mxCell id="oWUO9L_G3Eso75ve9gdb-87" value="" style="shape=link;html=1;rounded=0;entryX=0.5;entryY=0;entryDx=0;entryDy=0;" parent="1" source="oWUO9L_G3Eso75ve9gdb-79" target="oWUO9L_G3Eso75ve9gdb-1" edge="1">
          <mxGeometry relative="1" as="geometry">
            <mxPoint x="606.4948453608249" y="406.5979381443299" as="sourcePoint" />
            <mxPoint x="670" y="355" as="targetPoint" />
          </mxGeometry>
        </mxCell>
        <mxCell id="oWUO9L_G3Eso75ve9gdb-88" value="N" style="resizable=0;html=1;align=right;verticalAlign=bottom;" parent="oWUO9L_G3Eso75ve9gdb-87" connectable="0" vertex="1">
          <mxGeometry x="1" relative="1" as="geometry">
            <mxPoint x="30.230000000000004" y="1.8099999999999996" as="offset" />
          </mxGeometry>
        </mxCell>
        <mxCell id="oWUO9L_G3Eso75ve9gdb-89" value="" style="shape=link;html=1;rounded=0;exitX=0.5;exitY=1;exitDx=0;exitDy=0;" parent="1" source="oWUO9L_G3Eso75ve9gdb-76" target="oWUO9L_G3Eso75ve9gdb-3" edge="1">
          <mxGeometry relative="1" as="geometry">
            <mxPoint x="330" y="340" as="sourcePoint" />
            <mxPoint x="490" y="340" as="targetPoint" />
          </mxGeometry>
        </mxCell>
        <mxCell id="oWUO9L_G3Eso75ve9gdb-90" value="1" style="resizable=0;html=1;align=right;verticalAlign=bottom;" parent="oWUO9L_G3Eso75ve9gdb-89" connectable="0" vertex="1">
          <mxGeometry x="1" relative="1" as="geometry">
            <mxPoint x="-11.97" y="0.17" as="offset" />
          </mxGeometry>
        </mxCell>
        <mxCell id="oWUO9L_G3Eso75ve9gdb-91" value="" style="endArrow=none;html=1;rounded=0;exitX=0.433;exitY=1.02;exitDx=0;exitDy=0;exitPerimeter=0;entryX=0.5;entryY=0;entryDx=0;entryDy=0;" parent="1" source="oWUO9L_G3Eso75ve9gdb-4" target="oWUO9L_G3Eso75ve9gdb-76" edge="1">
          <mxGeometry relative="1" as="geometry">
            <mxPoint x="330" y="340" as="sourcePoint" />
            <mxPoint x="490" y="340" as="targetPoint" />
          </mxGeometry>
        </mxCell>
        <mxCell id="oWUO9L_G3Eso75ve9gdb-92" value="N" style="resizable=0;html=1;align=right;verticalAlign=bottom;" parent="1" connectable="0" vertex="1">
          <mxGeometry x="202.9971866665951" y="189.9989166543669" as="geometry">
            <mxPoint x="-38" y="1" as="offset" />
          </mxGeometry>
        </mxCell>
        <mxCell id="oWUO9L_G3Eso75ve9gdb-93" value="" style="shape=link;html=1;rounded=0;entryX=0.433;entryY=0.007;entryDx=0;entryDy=0;entryPerimeter=0;exitX=0.5;exitY=1;exitDx=0;exitDy=0;" parent="1" source="oWUO9L_G3Eso75ve9gdb-80" target="oWUO9L_G3Eso75ve9gdb-1" edge="1">
          <mxGeometry relative="1" as="geometry">
            <mxPoint x="330" y="340" as="sourcePoint" />
            <mxPoint x="490" y="340" as="targetPoint" />
          </mxGeometry>
        </mxCell>
        <mxCell id="oWUO9L_G3Eso75ve9gdb-94" value="N" style="resizable=0;html=1;align=right;verticalAlign=bottom;" parent="oWUO9L_G3Eso75ve9gdb-93" connectable="0" vertex="1">
          <mxGeometry x="1" relative="1" as="geometry">
            <mxPoint x="-28.979999999999997" y="-0.1899999999999995" as="offset" />
          </mxGeometry>
        </mxCell>
        <mxCell id="oWUO9L_G3Eso75ve9gdb-95" value="" style="endArrow=none;html=1;rounded=0;entryX=0.5;entryY=1;entryDx=0;entryDy=0;exitX=0.5;exitY=0;exitDx=0;exitDy=0;" parent="1" source="oWUO9L_G3Eso75ve9gdb-80" edge="1">
          <mxGeometry relative="1" as="geometry">
            <mxPoint x="330" y="340" as="sourcePoint" />
            <mxPoint x="605" y="160" as="targetPoint" />
          </mxGeometry>
        </mxCell>
        <mxCell id="oWUO9L_G3Eso75ve9gdb-99" value="Date" style="ellipse;whiteSpace=wrap;html=1;align=center;strokeWidth=2;fontStyle=1" parent="1" vertex="1">
          <mxGeometry x="290" y="250" width="80" height="30" as="geometry" />
        </mxCell>
        <mxCell id="oWUO9L_G3Eso75ve9gdb-100" value="Location" style="ellipse;whiteSpace=wrap;html=1;align=center;strokeWidth=2;fontStyle=1" parent="1" vertex="1">
          <mxGeometry x="334" y="325" width="80" height="30" as="geometry" />
        </mxCell>
        <mxCell id="oWUO9L_G3Eso75ve9gdb-101" value="" style="endArrow=none;html=1;rounded=0;entryX=0;entryY=1;entryDx=0;entryDy=0;exitX=1;exitY=0;exitDx=0;exitDy=0;" parent="1" source="oWUO9L_G3Eso75ve9gdb-78" target="oWUO9L_G3Eso75ve9gdb-99" edge="1">
          <mxGeometry relative="1" as="geometry">
            <mxPoint x="330" y="340" as="sourcePoint" />
            <mxPoint x="490" y="340" as="targetPoint" />
          </mxGeometry>
        </mxCell>
        <mxCell id="oWUO9L_G3Eso75ve9gdb-102" value="" style="endArrow=none;html=1;rounded=0;entryX=0;entryY=0.5;entryDx=0;entryDy=0;exitX=1;exitY=0;exitDx=0;exitDy=0;" parent="1" source="oWUO9L_G3Eso75ve9gdb-78" target="oWUO9L_G3Eso75ve9gdb-100" edge="1">
          <mxGeometry relative="1" as="geometry">
            <mxPoint x="285" y="335" as="sourcePoint" />
            <mxPoint x="311.71572875253787" y="285.6066017177983" as="targetPoint" />
          </mxGeometry>
        </mxCell>
        <mxCell id="oWUO9L_G3Eso75ve9gdb-103" value="Year" style="ellipse;whiteSpace=wrap;html=1;align=center;strokeWidth=2;fontStyle=1" parent="1" vertex="1">
          <mxGeometry x="665" y="400" width="80" height="30" as="geometry" />
        </mxCell>
        <mxCell id="oWUO9L_G3Eso75ve9gdb-104" value="" style="endArrow=none;html=1;rounded=0;entryX=0;entryY=0.5;entryDx=0;entryDy=0;" parent="1" target="oWUO9L_G3Eso75ve9gdb-103" edge="1">
          <mxGeometry relative="1" as="geometry">
            <mxPoint x="630" y="410" as="sourcePoint" />
            <mxPoint x="490" y="340" as="targetPoint" />
          </mxGeometry>
        </mxCell>
        <mxCell id="oWUO9L_G3Eso75ve9gdb-107" value="" style="endArrow=none;html=1;rounded=0;entryX=0.5;entryY=1;entryDx=0;entryDy=0;exitX=0.25;exitY=0;exitDx=0;exitDy=0;" parent="1" source="arUYGnkb_9BR7SVIHVMS-79" edge="1">
          <mxGeometry relative="1" as="geometry">
            <mxPoint x="330" y="340" as="sourcePoint" />
            <mxPoint x="480" y="90" as="targetPoint" />
          </mxGeometry>
        </mxCell>
        <mxCell id="oWUO9L_G3Eso75ve9gdb-109" value="SOCCER MANAGEMENT" style="text;html=1;strokeColor=none;fillColor=none;align=center;verticalAlign=middle;whiteSpace=wrap;rounded=0;fontStyle=1;fontSize=16;" parent="1" vertex="1">
          <mxGeometry x="334" y="10" width="200" height="20" as="geometry" />
        </mxCell>
        <mxCell id="oWUO9L_G3Eso75ve9gdb-110" value="" style="endArrow=none;html=1;rounded=0;fontSize=16;entryX=0.422;entryY=-0.01;entryDx=0;entryDy=0;entryPerimeter=0;exitX=0.5;exitY=1;exitDx=0;exitDy=0;" parent="1" source="oWUO9L_G3Eso75ve9gdb-78" target="oWUO9L_G3Eso75ve9gdb-1" edge="1">
          <mxGeometry relative="1" as="geometry">
            <mxPoint x="230" y="330" as="sourcePoint" />
            <mxPoint x="390" y="330" as="targetPoint" />
          </mxGeometry>
        </mxCell>
        <mxCell id="oWUO9L_G3Eso75ve9gdb-111" value="N" style="resizable=0;html=1;align=right;verticalAlign=bottom;" parent="oWUO9L_G3Eso75ve9gdb-110" connectable="0" vertex="1">
          <mxGeometry x="1" relative="1" as="geometry" />
        </mxCell>
        <mxCell id="arUYGnkb_9BR7SVIHVMS-49" value="LEAGUE" style="whiteSpace=wrap;html=1;align=center;fontStyle=1;strokeWidth=2;" vertex="1" parent="1">
          <mxGeometry x="939.89" y="114" width="90" height="30" as="geometry" />
        </mxCell>
        <mxCell id="arUYGnkb_9BR7SVIHVMS-50" value="PID" style="ellipse;whiteSpace=wrap;html=1;align=center;strokeWidth=2;fontStyle=5" vertex="1" parent="1">
          <mxGeometry x="910" y="40" width="80" height="30" as="geometry" />
        </mxCell>
        <mxCell id="arUYGnkb_9BR7SVIHVMS-51" value="PName" style="ellipse;whiteSpace=wrap;html=1;align=center;strokeWidth=2;fontStyle=1" vertex="1" parent="1">
          <mxGeometry x="1000" y="40" width="80" height="30" as="geometry" />
        </mxCell>
        <mxCell id="arUYGnkb_9BR7SVIHVMS-52" value="Days" style="ellipse;whiteSpace=wrap;html=1;align=center;strokeWidth=2;fontStyle=1" vertex="1" parent="1">
          <mxGeometry x="1070" y="70" width="80" height="30" as="geometry" />
        </mxCell>
        <mxCell id="arUYGnkb_9BR7SVIHVMS-53" value="" style="endArrow=none;html=1;rounded=0;exitX=0.5;exitY=1;exitDx=0;exitDy=0;entryX=0.25;entryY=0;entryDx=0;entryDy=0;" edge="1" source="arUYGnkb_9BR7SVIHVMS-50" target="arUYGnkb_9BR7SVIHVMS-49" parent="1">
          <mxGeometry relative="1" as="geometry">
            <mxPoint x="709.89" y="234" as="sourcePoint" />
            <mxPoint x="869.89" y="234" as="targetPoint" />
          </mxGeometry>
        </mxCell>
        <mxCell id="arUYGnkb_9BR7SVIHVMS-54" value="" style="endArrow=none;html=1;rounded=0;exitX=0.5;exitY=1;exitDx=0;exitDy=0;entryX=0.5;entryY=0;entryDx=0;entryDy=0;" edge="1" source="arUYGnkb_9BR7SVIHVMS-51" target="arUYGnkb_9BR7SVIHVMS-49" parent="1">
          <mxGeometry relative="1" as="geometry">
            <mxPoint x="918.1742712474621" y="77.6066017177983" as="sourcePoint" />
            <mxPoint x="972.39" y="124" as="targetPoint" />
          </mxGeometry>
        </mxCell>
        <mxCell id="arUYGnkb_9BR7SVIHVMS-56" value="" style="endArrow=none;html=1;rounded=0;exitX=0;exitY=0.5;exitDx=0;exitDy=0;entryX=0.75;entryY=0;entryDx=0;entryDy=0;" edge="1" source="arUYGnkb_9BR7SVIHVMS-52" target="arUYGnkb_9BR7SVIHVMS-49" parent="1">
          <mxGeometry relative="1" as="geometry">
            <mxPoint x="1089.8899999999999" y="72" as="sourcePoint" />
            <mxPoint x="1030" y="120" as="targetPoint" />
          </mxGeometry>
        </mxCell>
        <mxCell id="arUYGnkb_9BR7SVIHVMS-58" value="organize" style="shape=rhombus;double=1;perimeter=rhombusPerimeter;whiteSpace=wrap;html=1;align=center;" vertex="1" parent="1">
          <mxGeometry x="770.9999999999999" y="116" width="89" height="40" as="geometry" />
        </mxCell>
        <mxCell id="arUYGnkb_9BR7SVIHVMS-71" value="MName" style="ellipse;whiteSpace=wrap;html=1;align=center;strokeWidth=2;fontStyle=1" vertex="1" parent="1">
          <mxGeometry x="620" y="40" width="80" height="30" as="geometry" />
        </mxCell>
        <mxCell id="arUYGnkb_9BR7SVIHVMS-73" value="Stadium" style="ellipse;whiteSpace=wrap;html=1;align=center;strokeWidth=2;fontStyle=1" vertex="1" parent="1">
          <mxGeometry x="719.8899999999999" y="48" width="80" height="30" as="geometry" />
        </mxCell>
        <mxCell id="arUYGnkb_9BR7SVIHVMS-74" value="" style="endArrow=none;html=1;rounded=0;entryX=0.5;entryY=0;entryDx=0;entryDy=0;" edge="1" target="arUYGnkb_9BR7SVIHVMS-79" parent="1">
          <mxGeometry relative="1" as="geometry">
            <mxPoint x="568.5478751522169" y="69.6535002609429" as="sourcePoint" />
            <mxPoint x="512.5" y="172" as="targetPoint" />
          </mxGeometry>
        </mxCell>
        <mxCell id="arUYGnkb_9BR7SVIHVMS-75" value="" style="endArrow=none;html=1;rounded=0;exitX=0;exitY=1;exitDx=0;exitDy=0;entryX=0.693;entryY=0.039;entryDx=0;entryDy=0;entryPerimeter=0;" edge="1" source="arUYGnkb_9BR7SVIHVMS-71" target="arUYGnkb_9BR7SVIHVMS-79" parent="1">
          <mxGeometry relative="1" as="geometry">
            <mxPoint x="648.2842712474621" y="145.6066017177983" as="sourcePoint" />
            <mxPoint x="535" y="172" as="targetPoint" />
          </mxGeometry>
        </mxCell>
        <mxCell id="arUYGnkb_9BR7SVIHVMS-77" value="" style="endArrow=none;html=1;rounded=0;exitX=0;exitY=0.5;exitDx=0;exitDy=0;entryX=1;entryY=0.25;entryDx=0;entryDy=0;" edge="1" source="arUYGnkb_9BR7SVIHVMS-73" target="arUYGnkb_9BR7SVIHVMS-79" parent="1">
          <mxGeometry relative="1" as="geometry">
            <mxPoint x="820" y="140" as="sourcePoint" />
            <mxPoint x="580" y="179.5" as="targetPoint" />
          </mxGeometry>
        </mxCell>
        <mxCell id="arUYGnkb_9BR7SVIHVMS-78" value="N" style="resizable=0;html=1;align=right;verticalAlign=bottom;" connectable="0" vertex="1" parent="1">
          <mxGeometry x="719.8922509926665" y="232.25540746654428" as="geometry">
            <mxPoint x="-137" y="-50" as="offset" />
          </mxGeometry>
        </mxCell>
        <mxCell id="arUYGnkb_9BR7SVIHVMS-79" value="MATCH" style="shape=ext;margin=3;double=1;whiteSpace=wrap;html=1;align=center;fontStyle=1" vertex="1" parent="1">
          <mxGeometry x="550" y="124" width="100" height="40" as="geometry" />
        </mxCell>
        <mxCell id="arUYGnkb_9BR7SVIHVMS-84" value="&lt;span style=&quot;border-bottom: 1px dotted&quot;&gt;Date&lt;/span&gt;" style="ellipse;whiteSpace=wrap;html=1;align=center;strokeWidth=2;" vertex="1" parent="1">
          <mxGeometry x="440" y="55" width="70" height="35" as="geometry" />
        </mxCell>
        <mxCell id="arUYGnkb_9BR7SVIHVMS-85" value="&lt;span style=&quot;border-bottom: 1px dotted&quot;&gt;MID&lt;/span&gt;" style="ellipse;whiteSpace=wrap;html=1;align=center;strokeWidth=2;" vertex="1" parent="1">
          <mxGeometry x="530" y="35" width="70" height="35" as="geometry" />
        </mxCell>
        <mxCell id="arUYGnkb_9BR7SVIHVMS-86" value="" style="shape=link;html=1;rounded=0;entryX=1;entryY=0.5;entryDx=0;entryDy=0;exitX=0;exitY=0.5;exitDx=0;exitDy=0;" edge="1" parent="1" source="arUYGnkb_9BR7SVIHVMS-58" target="arUYGnkb_9BR7SVIHVMS-79">
          <mxGeometry relative="1" as="geometry">
            <mxPoint x="560" y="300" as="sourcePoint" />
            <mxPoint x="488.9699999999998" y="500.21000000000004" as="targetPoint" />
          </mxGeometry>
        </mxCell>
        <mxCell id="arUYGnkb_9BR7SVIHVMS-87" value="N" style="resizable=0;html=1;align=right;verticalAlign=bottom;" connectable="0" vertex="1" parent="arUYGnkb_9BR7SVIHVMS-86">
          <mxGeometry x="1" relative="1" as="geometry">
            <mxPoint x="29.400000000000006" y="-8.94" as="offset" />
          </mxGeometry>
        </mxCell>
        <mxCell id="arUYGnkb_9BR7SVIHVMS-88" value="" style="shape=link;html=1;rounded=0;entryX=1;entryY=0.5;entryDx=0;entryDy=0;exitX=0;exitY=0.5;exitDx=0;exitDy=0;" edge="1" parent="1" source="arUYGnkb_9BR7SVIHVMS-49" target="arUYGnkb_9BR7SVIHVMS-58">
          <mxGeometry relative="1" as="geometry">
            <mxPoint x="781" y="138.9999999999999" as="sourcePoint" />
            <mxPoint x="660" y="153.9999999999999" as="targetPoint" />
          </mxGeometry>
        </mxCell>
        <mxCell id="arUYGnkb_9BR7SVIHVMS-89" value="1" style="resizable=0;html=1;align=right;verticalAlign=bottom;" connectable="0" vertex="1" parent="arUYGnkb_9BR7SVIHVMS-88">
          <mxGeometry x="1" relative="1" as="geometry">
            <mxPoint x="59.80000000000001" y="-11.98" as="offset" />
          </mxGeometry>
        </mxCell>
      </root>
    </mxGraphModel>
  </diagram>
</mxfile>
